<!-- icon666.com - MILLIONS vector ICONS FREE --><svg id="Layer_1" enable-background="new 0 0 479.291 479.291" viewBox="0 0 479.291 479.291" xmlns="http://www.w3.org/2000/svg"><g><path d="m392.209 44.148c-5.927-4.131-13.641 1.157-12.558 8.097.161 15.435-1.015 30.626-3.535 45.493l-14.451-3.77c-4.277-1.112-8.645 1.447-9.76 5.722s1.446 8.646 5.721 9.761l15.285 3.987c-3.177 13.417-7.467 26.54-12.866 39.313l-9.656-5.112c-3.905-2.065-8.746-.577-10.813 3.327-2.067 3.905-.578 8.746 3.327 10.813l10.433 5.523c-6.919 13.772-14.776 26.154-23.094 37.234l-6.719-5.168c-3.501-2.693-8.525-2.039-11.218 1.463-2.694 3.502-2.039 8.525 1.463 11.219l6.464 4.973c-9.834 11.509-20.015 21.367-29.834 29.708l-6.875-7.448c-2.997-3.248-8.058-3.448-11.305-.453-3.247 2.997-3.449 8.059-.452 11.305l6.107 6.616c-10.18 7.665-19.564 13.624-27.215 18.022-3.831 2.202-5.151 7.092-2.949 10.923 2.212 3.849 7.112 5.14 10.922 2.948 8.436-4.85 18.852-11.475 30.146-20.081l6.989 7.571c1.577 1.709 3.725 2.574 5.88 2.574 6.908 0 10.619-8.289 5.876-13.426l-6.271-6.794c10.432-8.905 21.238-19.426 31.669-31.706l6.846 5.266c1.454 1.118 3.169 1.659 4.872 1.659 7.6 0 10.944-9.68 4.883-14.341l-6.603-5.079c8.837-11.751 17.189-24.886 24.556-39.5 9.59 5.077 10.523 5.922 13.163 5.922 2.868 0 5.642-1.547 7.077-4.259 2.067-3.905.578-8.746-3.327-10.813l-10.144-5.37c5.96-13.896 10.671-28.183 14.152-42.791 16.977 4.429 15.874 4.233 17.254 4.233 3.553 0 6.797-2.385 7.735-5.982 1.115-4.275-1.446-8.646-5.721-9.761l-16.023-4.18c2.255-12.889 3.559-26.005 3.916-39.303 43.85 18.536 71.172 62.772 67.391 111.218-5.475 69.769-36.385 135.398-87.035 184.799-35.038 34.173-87.636 67.207-136.553 67.207-41.375 0-93.48-25.752-135.984-67.207-50.65-49.4-81.56-115.03-87.035-184.795-4.777-61.234 41.148-114.966 102.377-119.775 49.439-3.872 95.967 25.952 113.138 72.546 1.159 3.145 4.155 5.233 7.506 5.233h.568c3.352 0 6.348-2.089 7.506-5.233 13.692-37.152 46.359-64.451 85.255-71.244 4.352-.76 7.264-4.904 6.504-9.257-.761-4.354-4.904-7.261-9.257-6.505-38.682 6.756-71.977 31.236-90.303 65.432-23.1-42.962-69.764-71.032-122.169-66.923-70.02 5.5-122.54 66.945-117.074 136.977 5.779 73.638 38.386 142.891 91.815 195.001 45.379 44.259 101.766 71.753 147.156 71.753 52.911 0 109.534-34.505 147.724-71.753 53.429-52.11 86.036-121.363 91.815-195.005 4.594-58.866-31.788-112.498-86.692-130.804z"></path><path d="m117.284 102.668c-.782.061-1.559.135-2.333.223-4.39.497-7.546 4.459-7.049 8.849.493 4.356 4.416 7.545 8.849 7.05.589-.066 1.182-.123 1.777-.17 4.405-.344 7.697-4.193 7.354-8.598-.343-4.406-4.197-7.699-8.598-7.354z"></path><path d="m80.974 126.412c-3.479-2.725-8.506-2.114-11.231 1.365-10.485 13.388-15.534 30.127-14.216 47.134.336 4.337 4.105 7.692 8.594 7.358 4.405-.342 7.699-4.189 7.358-8.595-1.008-13.007 2.85-25.803 10.861-36.032 2.724-3.478 2.113-8.506-1.366-11.23z"></path></g></svg>